HIERARCHY
ROOT pelvis
{
	OFFSET 0.000000 0.860057 -0.000000
	CHANNELS 6 Xposition Yposition Zposition Xrotation Yrotation Zrotation
	JOINT spine
	{
		OFFSET 0.000000 0.000000 0.000000
		CHANNELS 6 Xposition Yposition Zposition Xrotation Yrotation Zrotation
		JOINT spine.001
		{
			OFFSET 0.000000 0.260655 0.013660
			CHANNELS 3 Xrotation Yrotation Zrotation
			JOINT neck
			{
				OFFSET 0.000000 0.259067 -0.031809
				CHANNELS 6 Xposition Yposition Zposition Xrotation Yrotation Zrotation
				JOINT face
				{
					OFFSET 0.000000 0.215098 -0.003755
					CHANNELS 6 Xposition Yposition Zposition Xrotation Yrotation Zrotation
					End Site
					{
						OFFSET 0.000000 -0.008359 0.032339
					}
				}
			}
			JOINT shoulder.L
			{
				OFFSET 0.000000 0.259067 -0.031809
				CHANNELS 6 Xposition Yposition Zposition Yrotation Xrotation Zrotation
				JOINT upper_arm.L
				{
					OFFSET 0.165174 0.000000 0.000000
					CHANNELS 6 Xposition Yposition Zposition Xrotation Yrotation Zrotation
					JOINT forearm.L
					{
						OFFSET 0.286643 0.001034 -0.000125
						CHANNELS 6 Xposition Yposition Zposition Xrotation Yrotation Zrotation
						End Site
						{
							OFFSET 0.240020 -0.001423 0.004075
						}
					}
				}
			}
			JOINT shoulder.R
			{
				OFFSET 0.000000 0.259067 -0.031809
				CHANNELS 6 Xposition Yposition Zposition Yrotation Xrotation Zrotation
				JOINT upper_arm.R
				{
					OFFSET -0.165174 0.000000 0.000000
					CHANNELS 6 Xposition Yposition Zposition Xrotation Yrotation Zrotation
					JOINT forearm.R
					{
						OFFSET -0.289110 0.001034 -0.000125
						CHANNELS 6 Xposition Yposition Zposition Xrotation Yrotation Zrotation
						End Site
						{
							OFFSET -0.238651 -0.001423 0.004051
						}
					}
				}
			}
		}
	}
	JOINT pelvis.L
	{
		OFFSET 0.000000 0.000000 0.000000
		CHANNELS 6 Xposition Yposition Zposition Yrotation Xrotation Zrotation
		End Site
		{
			OFFSET 0.104399 0.000000 0.000000
		}
	}
	JOINT pelvis.R
	{
		OFFSET 0.000000 0.000000 0.000000
		CHANNELS 6 Xposition Yposition Zposition Yrotation Xrotation Zrotation
		End Site
		{
			OFFSET -0.104399 0.000000 0.000000
		}
	}
	JOINT thigh.L
	{
		OFFSET 0.104399 0.000000 0.000000
		CHANNELS 6 Xposition Yposition Zposition Xrotation Yrotation Zrotation
		JOINT shin.L
		{
			OFFSET 0.021308 -0.406588 0.000000
			CHANNELS 6 Xposition Yposition Zposition Xrotation Yrotation Zrotation
			JOINT foot.L
			{
				OFFSET 0.019716 -0.376210 0.000000
				CHANNELS 6 Xposition Yposition Zposition Xrotation Yrotation Zrotation
				End Site
				{
					OFFSET 0.016962 -0.072623 0.172945
				}
			}
		}
	}
	JOINT thigh.R
	{
		OFFSET -0.104399 0.000000 0.000000
		CHANNELS 6 Xposition Yposition Zposition Xrotation Yrotation Zrotation
		JOINT shin.R
		{
			OFFSET -0.021045 -0.401565 0.000000
			CHANNELS 6 Xposition Yposition Zposition Xrotation Yrotation Zrotation
			JOINT foot.R
			{
				OFFSET -0.020371 -0.388707 0.000000
				CHANNELS 6 Xposition Yposition Zposition Xrotation Yrotation Zrotation
				End Site
				{
					OFFSET -0.016433 -0.070357 0.167551
				}
			}
		}
	}
}
MOTION
Frames: 9
Frame Time: 0.041667
0.049056 0.001311 -0.002430 0.000001 11.186368 -0.000005 -0.000000 -0.000000 0.000000 -5.425839 0.373672 -3.733892 10.040107 6.101910 -0.752049 -0.000000 0.259067 -0.031809 5.183174 -3.878311 3.466161 -0.000000 0.215098 -0.003755 2.119243 -0.000002 -0.000004 -0.000000 0.259067 -0.031809 0.249361 -0.004421 2.031500 0.165174 -0.000000 0.000000 -7.989157 -8.981525 -83.384507 0.286643 0.001034 -0.000125 -0.116803 -3.611887 -6.540874 -0.000000 0.259067 -0.031809 0.242488 -0.004177 1.975677 -0.165175 0.000000 -0.000000 -7.882758 9.666734 78.473512 -0.289110 0.001034 -0.000125 -0.729745 11.983182 7.451035 0.000000 -0.000000 0.000000 -0.000015 -0.000001 -3.745245 0.000000 -0.000000 0.000000 -0.000002 -0.000000 -3.745247 0.104176 -0.006819 -0.000000 4.318974 -0.049973 -7.324895 0.021308 -0.406588 0.000000 -2.387776 -0.281292 7.436104 0.019716 -0.376210 0.000000 -0.318601 -18.586056 -8.019827 -0.104176 0.006819 0.000000 3.819188 -0.110929 2.673762 -0.021045 -0.401565 0.000000 4.393814 -0.445354 -5.569504 -0.020371 -0.388707 0.000000 -1.874759 -6.224970 -2.906228 
0.048515 0.001799 -0.003311 0.000001 11.390616 -0.000005 -0.000000 -0.000000 0.000000 -5.288872 0.373573 -3.778469 10.036143 5.802247 -0.714919 -0.000000 0.259067 -0.031809 5.034281 -3.926266 3.469888 -0.000000 0.215098 -0.003755 2.180129 0.000008 -0.000005 0.000000 0.259067 -0.031809 0.244255 -0.004242 1.989977 0.165174 -0.000000 0.000000 -8.189690 -9.220574 -83.306704 0.286643 0.001034 -0.000125 -0.091846 -3.229903 -6.468418 -0.000000 0.259067 -0.031809 0.237367 -0.004008 1.934198 -0.165175 0.000000 -0.000000 -7.866750 9.637684 78.527873 -0.289110 0.001034 -0.000125 -0.771013 12.375529 7.591709 -0.000000 0.000000 0.000000 0.000087 0.000003 -3.702573 0.000000 -0.000000 0.000000 -0.000003 -0.000000 -3.702573 0.104181 -0.006742 0.000000 4.302723 -0.051855 -7.380076 0.021308 -0.406588 0.000000 -2.507775 -0.299140 7.603058 0.019716 -0.376210 0.000000 -0.259450 -18.749884 -8.087239 -0.104181 0.006742 -0.000000 3.470590 -0.100984 2.667782 -0.021045 -0.401565 0.000000 5.048368 -0.506417 -5.449224 -0.020371 -0.388707 0.000000 -2.395369 -6.295602 -3.022522 
0.047976 0.002729 -0.003915 0.000001 11.439843 -0.000005 -0.000000 -0.000000 0.000000 -5.123838 0.374222 -3.841492 10.030745 5.347475 -0.658505 -0.000000 0.259067 -0.031809 4.692205 -3.835042 3.461343 -0.000000 0.215098 -0.003755 2.417724 0.000002 -0.000001 0.000000 0.259067 -0.031809 0.235812 -0.003953 1.920983 0.165174 -0.000000 0.000000 -8.103934 -9.146224 -83.166289 0.286643 0.001034 -0.000125 -0.097236 -3.337588 -6.357961 0.000000 0.259067 -0.031809 0.228941 -0.003728 1.865161 -0.165175 0.000000 -0.000000 -7.743800 9.482086 78.554019 -0.289110 0.001034 -0.000125 -0.868126 13.181441 7.973283 -0.000000 0.000000 -0.000000 0.000027 0.000001 -3.663792 0.000000 -0.000000 -0.000000 -0.000003 -0.000000 -3.663792 0.104185 -0.006671 -0.000000 4.299439 -0.053066 -7.413247 0.021308 -0.406588 0.000000 -2.569973 -0.309417 7.728827 0.019716 -0.376210 0.000000 -0.190088 -18.806265 -8.105567 -0.104185 0.006671 -0.000000 3.105013 -0.090725 2.653531 -0.021045 -0.401565 0.000000 5.716155 -0.568030 -5.340653 -0.020371 -0.388707 0.000000 -2.990677 -6.215822 -3.085138 
0.047717 0.003697 -0.003584 0.000001 11.062883 -0.000005 -0.000000 -0.000000 0.000000 -4.973752 0.374025 -3.892345 10.025503 4.860635 -0.598187 -0.000000 0.259067 -0.031809 4.115226 -3.513622 3.384579 0.000000 0.215098 -0.003755 2.879040 -0.000002 -0.000002 -0.000000 0.259067 -0.031809 0.218707 -0.003401 1.781466 0.165174 -0.000000 0.000000 -7.652797 -8.675124 -82.900683 0.286643 0.001034 -0.000125 -0.133496 -3.947713 -6.282589 -0.000000 0.259067 -0.031809 0.211854 -0.003192 1.725600 -0.165175 -0.000000 -0.000000 -7.588426 9.279262 78.625538 -0.289110 0.001034 -0.000125 -0.997311 14.081995 8.529936 0.000000 -0.000000 0.000000 -0.000032 -0.000001 -3.617938 -0.000000 0.000000 0.000000 0.000000 0.000000 -3.617939 0.104191 -0.006588 -0.000000 4.425357 -0.055898 -7.446456 0.021308 -0.406588 0.000000 -2.680731 -0.324645 7.808189 0.019716 -0.376210 0.000000 -0.091089 -18.523350 -7.970109 -0.104191 0.006588 -0.000000 2.801236 -0.082296 2.634987 -0.021045 -0.401565 0.000000 6.242985 -0.619274 -5.318614 -0.020371 -0.388707 0.000000 -3.462518 -5.821608 -2.984833 
0.047945 0.004233 -0.002307 0.000001 10.206522 -0.000005 -0.000000 -0.000000 0.000000 -4.901614 0.372099 -3.898057 10.022176 4.545591 -0.559300 -0.000000 0.259067 -0.031809 3.499321 -2.979301 3.248930 0.000000 0.215098 -0.003755 3.406260 0.000009 -0.000001 -0.000000 0.259067 -0.031809 0.194328 -0.002680 1.583344 0.165174 0.000000 0.000000 -7.024661 -8.013466 -82.518985 0.286643 0.001034 -0.000125 -0.189781 -4.810511 -6.428473 -0.000000 0.259067 -0.031809 0.187480 -0.002499 1.527523 -0.165175 -0.000000 0.000000 -7.468533 9.110834 78.755954 -0.289110 0.001034 -0.000125 -1.097827 14.574244 9.066913 0.000000 -0.000000 0.000000 -0.000027 -0.000001 -3.540684 -0.000000 0.000000 0.000000 0.000001 0.000000 -3.540686 0.104199 -0.006447 0.000000 4.731999 -0.063232 -7.530105 0.021308 -0.406588 0.000000 -2.920220 -0.355598 7.883094 0.019716 -0.376210 0.000000 -0.018922 -17.826252 -7.654674 -0.104199 0.006447 -0.000000 2.585261 -0.076712 2.600844 -0.021045 -0.401565 0.000000 6.562419 -0.655260 -5.391747 -0.020371 -0.388707 0.000000 -3.726239 -5.073841 -2.687249 
0.048531 0.004208 -0.000712 -0.000000 9.117253 -0.000005 -0.000000 -0.000000 0.000000 -4.931795 0.370676 -3.872427 10.020354 4.347343 -0.534759 -0.000000 0.259067 -0.031809 3.087965 -2.216616 3.144228 0.000000 0.215098 -0.003755 3.786355 -0.000002 -0.000003 0.000000 0.259067 -0.031809 0.171896 -0.002099 1.400219 0.165174 0.000000 0.000000 -6.479553 -7.443620 -82.096634 0.286643 0.001034 -0.000125 -0.254815 -5.607605 -6.906315 0.000000 0.259067 -0.031809 0.165039 -0.001932 1.344396 -0.165175 -0.000000 0.000000 -7.416103 9.026648 78.879799 -0.289110 0.001034 -0.000125 -1.138115 14.534649 9.458535 -0.000000 0.000000 0.000000 0.000015 0.000001 -3.413462 -0.000000 0.000000 0.000000 0.000000 0.000000 -3.413430 0.104213 -0.006216 -0.000000 5.136609 -0.075425 -7.681226 0.021308 -0.406588 0.000000 -3.237278 -0.397175 7.985853 0.019716 -0.376210 0.000000 -0.066866 -16.889767 -7.245230 -0.104213 0.006216 -0.000000 2.449114 -0.073834 2.546765 -0.021045 -0.401565 0.000000 6.685388 -0.674209 -5.504352 -0.020371 -0.388707 0.000000 -3.857268 -4.139711 -2.280857 
0.049072 0.003801 0.000684 0.000001 8.076268 -0.000005 -0.000000 -0.000000 0.000000 -5.032609 0.373735 -3.868515 10.017022 3.971684 -0.488400 -0.000000 0.259067 -0.031809 2.932779 -1.187585 3.153676 0.000000 0.215098 -0.003755 3.967752 0.000004 0.000002 -0.000000 0.259067 -0.031810 0.158456 -0.001782 1.290227 0.165174 0.000000 0.000000 -6.110281 -7.056208 -81.781161 0.286643 0.001034 -0.000125 -0.315834 -6.205574 -7.472814 -0.000000 0.259067 -0.031810 0.151586 -0.001628 1.234450 -0.165175 0.000000 0.000000 -7.466511 9.074793 78.962786 -0.289110 0.001034 -0.000125 -1.133249 14.190795 9.700332 0.000000 0.000000 0.000000 -0.000000 0.000000 -3.267121 0.000000 -0.000000 0.000000 -0.000003 -0.000000 -3.267122 0.104229 -0.005950 -0.000000 5.532507 -0.089223 -7.846164 0.021308 -0.406588 0.000000 -3.551029 -0.439128 8.095091 0.019716 -0.376210 0.000000 -0.242184 -15.964509 -6.849919 -0.104229 0.005950 -0.000000 2.380361 -0.072939 2.490330 -0.021045 -0.401565 0.000000 6.661864 -0.678277 -5.614117 -0.020371 -0.388707 0.000000 -3.938007 -3.233165 -1.877315 
0.049267 0.003252 0.002026 -0.000000 7.072272 -0.000005 -0.000000 -0.000000 0.000000 -5.172534 0.382758 -3.911933 10.012055 3.359021 -0.412922 -0.000000 0.259067 -0.031809 2.909971 -0.011994 3.254190 0.000000 0.215098 -0.003755 4.067303 -0.000002 0.000001 0.000000 0.259067 -0.031809 0.151540 -0.001628 1.234704 0.165174 0.000000 0.000000 -5.856815 -6.767190 -81.734736 0.286643 0.001034 -0.000125 -0.358794 -6.712052 -7.632543 0.000000 0.259067 -0.031809 0.144686 -0.001484 1.178922 -0.165175 0.000000 0.000000 -7.599914 9.222232 79.056120 -0.289110 0.001034 -0.000125 -1.087799 13.645195 9.749127 0.000000 -0.000000 0.000000 -0.000012 -0.000001 -3.174663 0.000000 0.000000 0.000000 -0.000000 0.000000 -3.174696 0.104238 -0.005782 -0.000000 5.922017 -0.101712 -7.966037 0.021308 -0.406588 0.000000 -3.873838 -0.481776 8.173714 0.019716 -0.376210 0.000000 -0.453000 -15.090564 -6.477343 -0.104238 0.005782 -0.000000 2.361778 -0.073178 2.451041 -0.021045 -0.401565 0.000000 6.537773 -0.672887 -5.740013 -0.020371 -0.388707 0.000000 -3.951563 -2.360890 -1.479041 
0.049179 0.002759 0.003801 -0.000000 5.881212 -0.000000 -0.000000 -0.000000 0.000000 -5.351986 0.394293 -3.965598 10.008689 2.840094 -0.348981 0.000000 0.259067 -0.031809 2.892311 1.038223 3.334169 -0.000000 0.215098 -0.003755 4.214158 -0.000007 0.000001 0.000000 0.259067 -0.031809 0.143369 -0.001459 1.168267 0.165174 -0.000000 0.000000 -5.643573 -6.490980 -81.977973 0.286643 0.001034 -0.000125 -0.379243 -7.303164 -7.149941 0.000000 0.259067 -0.031809 0.136582 -0.001325 1.112433 -0.165175 0.000000 0.000000 -7.682312 9.298052 79.204889 -0.289110 0.001034 -0.000125 -0.979977 12.748662 9.492140 0.000000 -0.000000 -0.000000 -0.000043 -0.000001 -3.177611 0.000000 -0.000000 -0.000000 -0.000001 -0.000000 -3.177638 0.104238 -0.005787 -0.000000 6.365651 -0.114051 -8.050643 0.021308 -0.406588 0.000000 -4.236028 -0.528595 8.219780 0.019716 -0.376210 0.000000 -0.634027 -14.102679 -6.050181 -0.104238 0.005787 -0.000000 2.371414 -0.074005 2.425402 -0.021045 -0.401565 0.000000 6.330507 -0.661327 -5.915562 -0.020371 -0.388707 0.000000 -3.832962 -1.361959 -1.006535 
